<?xml version="1.0" encoding="UTF-8"?><svg id="a" xmlns="http://www.w3.org/2000/svg" viewBox="0 0 40 43.78"><defs><style>.b{fill:#fff082;}.c{fill:#464655;}.d{fill:#5b5d6e;}</style></defs><path class="c" d="M20.38,6.76h-6.05c-.42,0-.76,.34-.76,.76v3.4h7.57v-3.4c0-.42-.34-.76-.76-.76Z"/><circle class="d" cx="17.35" cy="26.43" r="16.64"/><path class="c" d="M22.96,37.46c-9.19,0-16.64-7.45-16.64-16.64,0-3.16,.88-6.11,2.41-8.63C3.92,15.11,.71,20.4,.71,26.43c0,9.19,7.45,16.64,16.64,16.64,6.03,0,11.32-3.21,14.24-8.02-2.52,1.53-5.47,2.41-8.63,2.41Z"/><circle class="b" cx="34.75" cy="8.27" r="3.78"/><path d="M34.75,7.57h-6.05c-1.69,0-3.07-1.38-3.07-3.07,0-2.48-2.02-4.49-4.49-4.49s-4.49,2.02-4.49,4.49v1.56h-2.32c-.81,0-1.47,.66-1.47,1.47v2.15C5.46,11.65,0,18.42,0,26.43c0,9.57,7.78,17.35,17.35,17.35s17.35-7.78,17.35-17.35c0-8.02-5.46-14.78-12.86-16.76v-2.15c0-.81-.66-1.47-1.47-1.47h-2.32v-1.56c0-1.69,1.38-3.07,3.07-3.07s3.07,1.38,3.07,3.07c0,2.48,2.02,4.49,4.49,4.49h6.05c.39,0,.71-.32,.71-.71s-.32-.71-.71-.71Zm-1.47,18.87c0,8.79-7.15,15.93-15.93,15.93S1.42,35.22,1.42,26.43s7.15-15.93,15.93-15.93,15.93,7.15,15.93,15.93ZM20.43,7.52v1.83c-1-.18-2.02-.27-3.07-.27s-2.08,.09-3.07,.27v-1.83s.02-.05,.05-.05h6.05s.05,.02,.05,.05Z"/><path d="M39.29,7.57h-1.51c-.39,0-.71,.32-.71,.71s.32,.71,.71,.71h1.51c.39,0,.71-.32,.71-.71s-.32-.71-.71-.71Z"/><path d="M34.75,3.03c-.39,0-.71,.32-.71,.71v1.51c0,.39,.32,.71,.71,.71s.71-.32,.71-.71v-1.51c0-.39-.32-.71-.71-.71Z"/><path d="M34.75,10.59c-.39,0-.71,.32-.71,.71v1.51c0,.39,.32,.71,.71,.71s.71-.32,.71-.71v-1.51c0-.39-.32-.71-.71-.71Z"/><path d="M37.39,9.91c-.28-.28-.73-.28-1,0-.28,.28-.28,.73,0,1l1.07,1.07c.14,.14,.32,.21,.5,.21s.36-.07,.5-.21c.28-.28,.28-.73,0-1l-1.07-1.07Z"/><path d="M32.11,6.64c.14,.14,.32,.21,.5,.21s.36-.07,.5-.21c.28-.28,.28-.73,0-1l-1.07-1.07c-.28-.28-.73-.28-1,0-.28,.28-.28,.73,0,1l1.07,1.07Z"/><path d="M32.11,9.91l-1.07,1.07c-.28,.28-.28,.73,0,1,.14,.14,.32,.21,.5,.21s.36-.07,.5-.21l1.07-1.07c.28-.28,.28-.73,0-1-.28-.28-.73-.28-1,0Z"/><path d="M36.89,6.84c.18,0,.36-.07,.5-.21l1.07-1.07c.28-.28,.28-.73,0-1s-.73-.28-1,0l-1.07,1.07c-.28,.28-.28,.73,0,1,.14,.14,.32,.21,.5,.21Z"/><path d="M22.38,14.54c.49,.21,.97,.45,1.43,.71,.11,.06,.23,.1,.35,.1,.24,0,.48-.13,.61-.35,.2-.34,.08-.77-.26-.97-.51-.3-1.05-.56-1.59-.79-.36-.15-.78,.02-.93,.38-.15,.36,.02,.78,.38,.93Z"/><path d="M14.48,39.02c-2.91-.66-5.51-2.33-7.35-4.7-.24-.31-.68-.37-.99-.13-.31,.24-.37,.69-.13,.99,2.03,2.63,4.93,4.48,8.16,5.21,.05,.01,.11,.02,.16,.02,.32,0,.62-.22,.69-.55,.09-.38-.15-.76-.53-.85Z"/><path d="M25.96,16.81c1.82,1.62,3.13,3.71,3.8,6.04,.09,.31,.37,.51,.68,.51,.07,0,.13,0,.2-.03,.38-.11,.59-.5,.48-.88-.74-2.58-2.2-4.9-4.22-6.7-.29-.26-.74-.24-1,.06-.26,.29-.24,.74,.06,1Z"/></svg>