<?xml version="1.0" encoding="UTF-8"?><svg id="a" xmlns="http://www.w3.org/2000/svg" viewBox="0 0 40 40"><defs><style>.b{fill:#9e9e9e;}.c{fill:#91562d;}.d{fill:#707070;}.e{fill:#6d4122;}.f{fill:#607d8b;}</style></defs><path class="d" d="M39.18,18.73c-2.36,2.86-4.98,5.49-7.85,7.84-.2,.17-.49,.21-.73,.1-.31-.13-.61-.27-.9-.41-.62-.3-1.23-.61-1.81-.93-5.63-2.98-10.23-7.59-13.21-13.22-.48-.87-.93-1.78-1.35-2.72-.11-.24-.07-.52,.1-.72,2.24-2.74,4.74-5.26,7.46-7.53l.38-.32c.21-.17,.49-.2,.73-.09,.94,.42,1.84,.87,2.72,1.34,5.63,2.98,10.24,7.59,13.22,13.22,.47,.87,.92,1.77,1.34,2.72,.11,.24,.07,.52-.09,.73Z"/><path class="b" d="M37.18,18.73c-2.25,2.74-4.75,5.26-7.47,7.53-.62-.3-1.23-.61-1.81-.93-5.63-2.98-10.23-7.59-13.21-13.22-.48-.87-.93-1.78-1.35-2.72-.11-.24-.07-.52,.1-.72,2.24-2.74,4.74-5.26,7.46-7.53,.62,.29,1.23,.61,1.82,.93,5.63,2.98,10.24,7.59,13.22,13.22,.47,.87,.92,1.77,1.34,2.72,.11,.24,.07,.52-.09,.73Z"/><path class="e" d="M35.72,7.68c0,.9-.36,1.77-1,2.41l-.13,.13-11.71,11.8-3.8,4.2-.89,.99-.93,1.03-.89,.98-7.79,8.61c-.83,.92-2.01,1.46-3.25,1.49-1.24,.03-2.44-.45-3.32-1.33-.22-.22-.42-.47-.59-.74-1.17-1.79-.92-4.15,.59-5.67,.05-.05,.11-.11,.17-.16l1.03-.93,.99-.89,1.03-.93,.99-.89,11.78-10.66L29.78,5.41l.13-.14c1.07-1.07,2.73-1.31,4.05-.57,.28,.15,.54,.34,.76,.57,.64,.64,1,1.5,1,2.41Z"/><path class="c" d="M34.39,6.35c0,.9-.36,1.77-1,2.41l-.13,.13-11.71,11.8-3.8,4.2-.89,.99-.93,1.03-.89,.98-7.79,8.61c-1.49,1.65-3.96,1.97-5.83,.76-1.17-1.79-.92-4.15,.59-5.67,.05-.05,.11-.11,.17-.16l1.03-.93,.99-.89,1.03-.93,.99-.89,11.78-10.66L29.78,5.41l.13-.14c1.07-1.07,2.73-1.31,4.05-.57,.28,.5,.43,1.07,.43,1.64Z"/><path class="f" d="M37.93,15.29c-3.17,3.52-6.52,6.87-10.04,10.04h0c-5.63-2.97-10.23-7.58-13.21-13.21,3.17-3.52,6.52-6.87,10.04-10.04,5.63,2.98,10.24,7.59,13.22,13.22Z"/><path d="M30.89,27.4c-.19,0-.38-.04-.56-.12-7.94-3.36-14.25-9.68-17.61-17.61-.21-.47-.14-1.02,.19-1.42,2.38-2.9,5.04-5.55,7.94-7.94,.4-.33,.95-.4,1.42-.19,7.94,3.36,14.25,9.68,17.61,17.61,.21,.47,.14,1.02-.19,1.42-2.38,2.9-5.04,5.55-7.94,7.94-.24,.2-.55,.31-.87,.31Zm0-1.34s.02,0,.03,0c2.83-2.33,5.43-4.92,7.75-7.75-3.22-7.65-9.3-13.74-16.94-16.97-2.84,2.32-5.45,4.92-7.78,7.76,3.22,7.65,9.3,13.74,16.94,16.97h0Z"/><path d="M14.67,12.78c-.26,0-.5-.16-.61-.4-.11-.24-.06-.52,.11-.72,3.19-3.53,6.55-6.9,10.09-10.09,.27-.24,.69-.21,.93,.06s.23,.69-.04,.94c-3.5,3.16-6.83,6.49-9.99,9.99-.13,.14-.31,.22-.5,.22Z"/><path d="M27.89,25.99c-.28,0-.52-.17-.62-.43-.1-.26-.03-.55,.18-.74,3.5-3.16,6.83-6.49,9.99-9.99,.25-.26,.66-.28,.93-.04,.27,.24,.3,.66,.06,.93-3.19,3.53-6.55,6.9-10.09,10.09-.12,.11-.28,.17-.45,.17Z"/><path d="M5.2,40c-2.1,0-4-1.27-4.8-3.21-.8-1.94-.36-4.18,1.12-5.66,.07-.07,.14-.14,.21-.2l15.79-14.29c.27-.24,.69-.21,.93,.06,.24,.27,.23,.68-.04,.93L2.61,31.93c-.06,.05-.11,.1-.14,.14-1.51,1.51-1.5,3.96,0,5.46,.75,.75,1.77,1.16,2.83,1.13,1.06-.03,2.06-.49,2.77-1.27l14.31-15.82c.25-.26,.66-.28,.93-.04,.27,.24,.29,.66,.06,.93l-14.31,15.81c-.95,1.06-2.3,1.68-3.73,1.71-.04,0-.09,0-.13,0Z"/><path d="M34.59,10.89c-.27,0-.51-.16-.62-.41-.1-.25-.05-.54,.14-.73l.13-.13c.69-.69,.96-1.7,.71-2.64-.25-.94-.99-1.68-1.93-1.93s-1.95,.02-2.64,.71l-.13,.14c-.17,.17-.42,.24-.65,.18-.23-.06-.41-.24-.48-.48s0-.48,.18-.65l.14-.13c1.03-1.03,2.53-1.44,3.94-1.06,1.41,.38,2.51,1.48,2.88,2.88,.38,1.41-.03,2.91-1.06,3.94l-.13,.13c-.12,.13-.29,.2-.47,.2Z"/><path d="M18.62,27.38c-.18,0-.35-.07-.47-.2l-2.19-2.19c-.25-.26-.25-.68,0-.94,.26-.26,.67-.26,.94,0l2.19,2.19c.19,.19,.25,.48,.14,.73-.1,.25-.35,.41-.62,.41Z"/><path d="M16.8,29.41c-.18,0-.35-.07-.47-.2l-2.29-2.29c-.25-.26-.25-.68,0-.94s.68-.26,.94,0l2.29,2.29c.19,.19,.25,.48,.14,.73-.1,.25-.35,.41-.62,.41Z"/><path d="M7.29,30.49c-.18,0-.35-.07-.47-.2l-1.59-1.59c-.17-.17-.24-.42-.18-.65,.06-.23,.24-.42,.48-.48s.48,0,.65,.18l1.59,1.59c.19,.19,.25,.48,.14,.73-.1,.25-.35,.41-.62,.41Z"/><path d="M5.37,32.41c-.18,0-.35-.07-.47-.2l-1.68-1.68c-.25-.26-.25-.68,0-.94,.26-.26,.68-.26,.94,0l1.68,1.68c.19,.19,.25,.48,.14,.73-.1,.25-.35,.41-.62,.41Z"/></svg>