<?xml version="1.0" encoding="UTF-8"?><svg id="a" xmlns="http://www.w3.org/2000/svg" viewBox="0 0 40 48.63"><defs><style>.b{fill:#fff;}.c{fill:#ff927d;}.d{fill:#bfad88;}.e{fill:#d1bc9d;}.f{fill:#54596e;}</style></defs><path class="e" d="M39.22,10.59c0,3.25-2.63,5.88-5.88,5.88s-5.88-2.63-5.88-5.88,2.63-5.88,5.88-5.88,5.88,2.63,5.88,5.88Z"/><path class="f" d="M39.22,10.59h.78c0-3.68-2.98-6.67-6.67-6.67-3.68,0-6.67,2.98-6.67,6.67,0,3.68,2.98,6.67,6.67,6.67,3.68,0,6.67-2.98,6.67-6.67h-1.57c0,1.41-.57,2.68-1.49,3.6-.92,.92-2.19,1.49-3.61,1.49-1.41,0-2.68-.57-3.6-1.49-.92-.92-1.49-2.19-1.49-3.6,0-1.41,.57-2.68,1.49-3.61,.92-.92,2.19-1.49,3.6-1.49,1.41,0,2.68,.57,3.61,1.49,.92,.92,1.49,2.19,1.49,3.6h.78Z"/><path class="e" d="M12.55,10.59c0,3.25-2.63,5.88-5.88,5.88S.78,13.84,.78,10.59,3.42,4.71,6.67,4.71s5.88,2.63,5.88,5.88Z"/><path class="f" d="M12.55,10.59h.78c0-3.68-2.98-6.67-6.67-6.67C2.98,3.92,0,6.91,0,10.59c0,3.68,2.98,6.67,6.67,6.67,3.68,0,6.67-2.98,6.67-6.67h-1.57c0,1.41-.57,2.68-1.49,3.6-.93,.92-2.2,1.49-3.61,1.49-1.41,0-2.68-.57-3.6-1.49-.92-.92-1.49-2.19-1.49-3.6,0-1.41,.57-2.68,1.49-3.61,.92-.92,2.19-1.49,3.6-1.49,1.41,0,2.68,.57,3.61,1.49,.92,.92,1.49,2.19,1.49,3.6h.78Z"/><path class="d" d="M20.39,.78C12.16,.78,5.49,7.46,5.49,15.69v30.65c0,.83,.68,1.51,1.51,1.51h26.78c.83,0,1.51-.68,1.51-1.51V15.69C35.29,7.46,28.62,.78,20.39,.78Z"/><path class="f" d="M20.39,.78V0C11.73,0,4.71,7.02,4.71,15.69v30.65c0,1.27,1.03,2.29,2.29,2.29h26.78c1.27,0,2.29-1.03,2.29-2.29V15.69C36.08,7.02,29.06,0,20.39,0V1.57c3.9,0,7.43,1.58,9.98,4.14,2.56,2.56,4.13,6.08,4.14,9.98v30.65c0,.4-.33,.73-.73,.73H7c-.4,0-.73-.33-.73-.73V15.69c0-3.9,1.58-7.43,4.14-9.98,2.56-2.56,6.08-4.13,9.98-4.14V.78Z"/><path class="f" d="M14.9,12.16c0,.65-.53,1.18-1.18,1.18s-1.18-.53-1.18-1.18,.53-1.18,1.18-1.18,1.18,.53,1.18,1.18Z"/><path class="b" d="M17.25,21.96h6.27v7.84h-6.27v-7.84Z"/><g><path class="f" d="M23.53,29.8v-.78h-5.49v-6.27h4.71v7.06h.78v0h.78v-7.84c0-.21-.08-.41-.23-.55s-.35-.23-.55-.23h-6.27c-.21,0-.41,.08-.55,.23-.15,.15-.23,.35-.23,.55v7.84c0,.21,.08,.41,.23,.55s.35,.23,.55,.23h6.27c.21,0,.41-.08,.55-.23,.15-.15,.23-.35,.23-.55h-.78Z"/><path class="f" d="M28.24,12.16c0,.65-.53,1.18-1.18,1.18s-1.18-.53-1.18-1.18,.53-1.18,1.18-1.18,1.18,.53,1.18,1.18Z"/><path class="f" d="M21.18,27.45v-5.49h-1.57v5.49"/></g><path class="d" d="M10.98,18.82c0,2.6,2.11,4.71,4.71,4.71s4.71-2.11,4.71-4.71"/><path class="f" d="M10.2,18.82c0,3.03,2.46,5.49,5.49,5.49,3.03,0,5.49-2.46,5.49-5.49,0-.43-.35-.78-.78-.78s-.78,.35-.78,.78c0,1.09-.44,2.06-1.15,2.77-.71,.71-1.69,1.15-2.77,1.15-1.09,0-2.06-.44-2.77-1.15-.71-.71-1.15-1.69-1.15-2.77,0-.43-.35-.78-.78-.78s-.78,.35-.78,.78Z"/><path class="d" d="M20.39,18.82c0,2.6,2.11,4.71,4.71,4.71s4.71-2.11,4.71-4.71"/><path class="f" d="M19.61,18.82c0,3.03,2.46,5.49,5.49,5.49,3.03,0,5.49-2.46,5.49-5.49,0-.43-.35-.78-.78-.78s-.78,.35-.78,.78c0,1.09-.44,2.06-1.15,2.77-.71,.71-1.69,1.15-2.77,1.15-1.09,0-2.06-.44-2.77-1.15-.71-.71-1.15-1.69-1.15-2.77,0-.43-.35-.78-.78-.78s-.78,.35-.78,.78Z"/><path class="e" d="M20.39,32.94c-3.9,0-7.06,3.16-7.06,7.06v7.06h14.12v-7.06c0-3.9-3.16-7.06-7.06-7.06Z"/><path class="c" d="M22.75,16.47c0,1.3-1.05,2.35-2.35,2.35s-2.35-1.05-2.35-2.35,1.05-2.35,2.35-2.35,2.35,1.05,2.35,2.35Z"/><path class="f" d="M22.75,16.47h.78c0-1.73-1.4-3.14-3.14-3.14-1.73,0-3.14,1.4-3.14,3.14,0,1.73,1.4,3.14,3.14,3.14,1.73,0,3.14-1.4,3.14-3.14h-1.57c0,.87-.7,1.57-1.57,1.57-.87,0-1.57-.7-1.57-1.57,0-.87,.7-1.57,1.57-1.57,.87,0,1.57,.7,1.57,1.57h.78Z"/><path class="d" d="M13.33,40H3.92v-.78c0-2.6,2.11-4.71,4.71-4.71s4.71,2.11,4.71,4.71v.78Z"/><path class="f" d="M13.33,40v-.78H4.71c0-1.09,.44-2.06,1.15-2.77,.71-.71,1.69-1.15,2.77-1.15,1.09,0,2.06,.44,2.77,1.15,.71,.71,1.15,1.69,1.15,2.77v.78h.78v0h.78v-.78c0-3.03-2.46-5.49-5.49-5.49-3.03,0-5.49,2.46-5.49,5.49v.78c0,.21,.08,.41,.23,.55s.35,.23,.55,.23H13.33c.21,0,.41-.08,.55-.23,.15-.15,.23-.35,.23-.55h-.78Z"/><path class="b" d="M5.49,44.71c-.87,0-1.57-.7-1.57-1.57v-3.14h3.14v3.14c0,.87-.7,1.57-1.57,1.57Z"/><path class="f" d="M5.49,44.71v-.78c-.43,0-.78-.35-.78-.78v-2.35h1.57v2.35c0,.43-.35,.78-.78,.78v1.57c1.3,0,2.35-1.05,2.35-2.35v-3.14c0-.21-.08-.41-.23-.55-.15-.15-.35-.23-.55-.23H3.92c-.21,0-.41,.08-.55,.23-.15,.15-.23,.35-.23,.55v3.14c0,1.3,1.05,2.35,2.35,2.35v-.78Z"/><path class="b" d="M8.63,44.71c-.87,0-1.57-.7-1.57-1.57v-3.14h3.14v3.14c0,.87-.7,1.57-1.57,1.57Z"/><path class="f" d="M8.63,44.71v-.78c-.43,0-.78-.35-.78-.78v-2.35h1.57v2.35c0,.43-.35,.78-.78,.78v1.57c1.3,0,2.35-1.05,2.35-2.35v-3.14c0-.21-.08-.41-.23-.55s-.35-.23-.55-.23h-3.14c-.21,0-.41,.08-.55,.23s-.23,.35-.23,.55v3.14c0,1.3,1.05,2.35,2.35,2.35v-.78Z"/><path class="b" d="M11.76,44.71c-.87,0-1.57-.7-1.57-1.57v-3.14h3.14v3.14c0,.87-.7,1.57-1.57,1.57Z"/><path class="f" d="M11.76,44.71v-.78c-.43,0-.78-.35-.78-.78v-2.35h1.57v2.35c0,.43-.35,.78-.78,.78v1.57c1.3,0,2.35-1.05,2.35-2.35v-3.14c0-.21-.08-.41-.23-.55-.15-.15-.35-.23-.55-.23h-3.14c-.21,0-.41,.08-.55,.23-.15,.15-.23,.35-.23,.55v3.14c0,1.3,1.05,2.35,2.35,2.35v-.78Z"/><path class="d" d="M36.86,40h-9.41v-.78c0-2.6,2.11-4.71,4.71-4.71s4.71,2.11,4.71,4.71v.78Z"/><path class="f" d="M36.86,40v-.78h-8.63c0-1.09,.44-2.06,1.15-2.77,.71-.71,1.69-1.15,2.77-1.15,1.09,0,2.06,.44,2.77,1.15,.71,.71,1.15,1.69,1.15,2.77v.78h.78v0h.78v-.78c0-3.03-2.46-5.49-5.49-5.49-3.03,0-5.49,2.46-5.49,5.49v.78c0,.21,.08,.41,.23,.55s.35,.23,.55,.23h9.41c.21,0,.41-.08,.55-.23s.23-.35,.23-.55h-.78Z"/><path class="b" d="M29.02,44.71c-.87,0-1.57-.7-1.57-1.57v-3.14h3.14v3.14c0,.87-.7,1.57-1.57,1.57Z"/><path class="f" d="M29.02,44.71v-.78c-.43,0-.78-.35-.78-.78v-2.35h1.57v2.35c0,.43-.35,.78-.78,.78v1.57c1.3,0,2.35-1.05,2.35-2.35v-3.14c0-.21-.08-.41-.23-.55s-.35-.23-.55-.23h-3.14c-.21,0-.41,.08-.55,.23-.15,.15-.23,.35-.23,.55v3.14c0,1.3,1.05,2.35,2.35,2.35v-.78Z"/><path class="b" d="M32.16,44.71c-.87,0-1.57-.7-1.57-1.57v-3.14h3.14v3.14c0,.87-.7,1.57-1.57,1.57Z"/><path class="f" d="M32.16,44.71v-.78c-.43,0-.78-.35-.78-.78v-2.35h1.57v2.35c0,.43-.35,.78-.78,.78v1.57c1.3,0,2.35-1.05,2.35-2.35v-3.14c0-.21-.08-.41-.23-.55-.15-.15-.35-.23-.55-.23h-3.14c-.21,0-.41,.08-.55,.23s-.23,.35-.23,.55v3.14c0,1.3,1.05,2.35,2.35,2.35v-.78Z"/><path class="b" d="M35.29,44.71c-.87,0-1.57-.7-1.57-1.57v-3.14h3.14v3.14c0,.87-.7,1.57-1.57,1.57Z"/><path class="f" d="M35.29,44.71v-.78c-.43,0-.78-.35-.78-.78v-2.35h1.57v2.35c0,.43-.35,.78-.78,.78v1.57c1.3,0,2.35-1.05,2.35-2.35v-3.14c0-.21-.08-.41-.23-.55s-.35-.23-.55-.23h-3.14c-.21,0-.41,.08-.55,.23-.15,.15-.23,.35-.23,.55v3.14c0,1.3,1.05,2.35,2.35,2.35v-.78Z"/></svg>